<?xml version="1.0" encoding="utf-8"?>
<svg version="1.1" viewBox="0 0 126 126" width="126px" height="126px" xmlns="http://www.w3.org/2000/svg">
  <g fill="#090942">
    <path id="path25" d="M 116.49 0 L 9.48 0 C 4.266 0 0 4.266 0 9.48 L 0 116.49 C 0 121.704 4.266 125.97 9.48 125.97 L 116.49 125.97 C 121.704 125.97 125.97 121.704 125.97 116.49 L 125.97 9.48 C 125.97 4.266 121.704 0 116.49 0 Z M 107.79 88.24 L 107.79 88.24 C 107.79 89.058 106.904 89.569 106.196 89.16 L 62.988 64.214 L 19.784 89.157 C 19.074 89.568 18.186 89.055 18.186 88.235 L 18.186 37.736 C 18.186 36.915 19.074 36.403 19.784 36.813 L 62.988 61.757 L 106.196 36.811 C 106.904 36.402 107.79 36.913 107.79 37.731 Z"/>
  </g>
</svg>
