<?xml version="1.0" encoding="utf-8"?>
<svg viewBox="0 0 622 126" width="622" height="126" xmlns="http://www.w3.org/2000/svg">
  <g fill="#090942">
    <path d="M 157.945 85.504 L 157.945 40.466 L 163.306 40.466 L 164.722 46.214 C 168.668 42.383 173.414 40.466 178.962 40.466 L 178.962 47.072 C 173.586 47.072 169.226 48.974 165.88 52.777 L 165.88 85.504 Z"/>
    <path d="M 224.3 65.258 L 192.688 65.258 C 192.688 74.467 198.064 79.07 208.816 79.07 C 213.648 79.07 218.052 78.641 222.027 77.783 L 222.027 84.217 C 218.052 85.075 213.219 85.504 207.529 85.504 C 192.345 85.504 184.753 77.826 184.753 62.471 C 184.753 47.801 191.658 40.466 205.47 40.466 C 220.111 40.466 226.387 48.731 224.3 65.258 Z M 192.688 58.653 L 192.688 58.653 L 217.051 58.653 C 216.879 50.761 213.019 46.815 205.47 46.815 C 197.463 46.815 193.203 50.761 192.688 58.653 Z"/>
    <path d="M 234.937 83.359 L 234.937 76.496 C 240.227 78.212 245.575 79.07 250.979 79.07 C 258.156 79.07 261.745 76.925 261.745 72.636 C 261.745 68.633 259.243 66.631 254.239 66.631 L 247.805 66.631 C 238.083 66.631 233.222 62.199 233.222 53.334 C 233.222 44.756 239.469 40.466 251.966 40.466 C 257.341 40.466 262.674 41.182 267.965 42.611 L 267.965 49.474 C 262.674 47.758 257.341 46.9 251.966 46.9 C 244.474 46.9 240.728 49.045 240.728 53.334 C 240.728 57.338 243.087 59.339 247.805 59.339 L 254.239 59.339 C 264.533 59.339 269.681 63.772 269.681 72.636 C 269.681 81.214 263.446 85.504 250.979 85.504 C 245.575 85.504 240.227 84.789 234.937 83.359 Z"/>
    <path d="M 280.404 33.175 L 285.379 33.175 L 287.095 40.466 L 299.277 40.466 L 299.277 46.9 L 288.339 46.9 L 288.339 72.765 C 288.339 76.968 290.154 79.07 293.786 79.07 L 299.277 79.07 L 299.277 85.504 L 291.727 85.504 C 284.178 85.504 280.404 81.458 280.404 73.365 Z"/>
    <path d="M 307.212 71.907 C 307.212 63.242 313.302 58.91 325.484 58.91 C 329.401 58.91 333.318 59.197 337.236 59.768 L 337.236 54.664 C 337.236 49.488 333.19 46.9 325.098 46.9 C 320.465 46.9 315.718 47.616 310.857 49.045 L 310.857 42.611 C 315.718 41.182 320.465 40.466 325.098 40.466 C 338.48 40.466 345.171 45.128 345.171 54.45 L 345.171 85.504 L 340.711 85.504 L 337.965 81.043 C 333.476 84.017 328.586 85.504 323.296 85.504 C 312.573 85.504 307.212 80.971 307.212 71.907 Z M 325.484 65.344 L 325.484 65.344 C 318.592 65.344 315.147 67.489 315.147 71.778 C 315.147 76.64 317.863 79.07 323.296 79.07 C 328.786 79.07 333.433 77.611 337.236 74.695 L 337.236 66.202 C 333.318 65.631 329.401 65.344 325.484 65.344 Z"/>
    <path id="path12" d="M 396.857 40.466 L 396.857 85.504 L 391.41 85.504 L 390.037 79.756 C 384.575 83.588 379.085 85.504 373.566 85.504 C 363.215 85.504 358.039 79.914 358.039 68.733 L 358.039 40.466 L 365.975 40.466 L 365.975 68.861 C 365.975 75.552 369.291 78.898 375.926 78.898 C 380.472 78.898 384.804 76.997 388.922 73.194 L 388.922 40.466 Z"/>
    <path d="M 409.725 85.504 L 409.725 40.466 L 415.087 40.466 L 416.416 46.128 C 420.734 42.354 425.438 40.466 430.528 40.466 C 437.048 40.466 441.494 42.525 443.868 46.643 C 448.758 42.525 453.719 40.466 458.752 40.466 C 469.103 40.466 474.279 46.171 474.279 57.581 L 474.279 85.504 L 466.344 85.504 L 466.344 57.152 C 466.344 50.432 463.513 47.072 457.851 47.072 C 453.619 47.072 449.658 49.017 445.969 52.905 L 445.969 85.504 L 438.034 85.504 L 438.034 57.28 C 438.034 50.475 435.232 47.072 429.627 47.072 C 425.167 47.072 421.178 49.017 417.66 52.905 L 417.66 85.504 Z"/>
    <path id="path16" d="M 485.002 71.907 C 485.002 63.242 491.093 58.91 503.274 58.91 C 507.192 58.91 511.109 59.197 515.027 59.768 L 515.027 54.664 C 515.027 49.488 510.98 46.9 502.888 46.9 C 498.256 46.9 493.509 47.616 488.648 49.045 L 488.648 42.611 C 493.509 41.182 498.256 40.466 502.888 40.466 C 516.271 40.466 522.962 45.128 522.962 54.45 L 522.962 85.504 L 518.501 85.504 L 515.756 81.043 C 511.267 84.017 506.377 85.504 501.087 85.504 C 490.364 85.504 485.002 80.971 485.002 71.907 Z M 503.274 65.344 L 503.274 65.344 C 496.383 65.344 492.937 67.489 492.937 71.778 C 492.937 76.64 495.653 79.07 501.087 79.07 C 506.577 79.07 511.224 77.611 515.027 74.695 L 515.027 66.202 C 511.109 65.631 507.192 65.344 503.274 65.344 Z"/>
    <path id="path18" d="M 535.83 33.175 L 540.806 33.175 L 542.521 40.466 L 554.703 40.466 L 554.703 46.9 L 543.765 46.9 L 543.765 72.765 C 543.765 76.968 545.581 79.07 549.213 79.07 L 554.703 79.07 L 554.703 85.504 L 547.154 85.504 C 539.605 85.504 535.83 81.458 535.83 73.365 Z"/>
    <path id="path20" d="M 573.576 24.167 L 573.576 31.674 L 565.641 31.674 L 565.641 24.167 Z M 573.576 40.466 L 573.576 40.466 L 573.576 85.504 L 565.641 85.504 L 565.641 40.466 Z"/>
    <path id="path22" d="M 621.187 84.217 C 617.469 85.075 613.466 85.504 609.177 85.504 C 593.163 85.504 585.157 77.712 585.157 62.127 C 585.157 47.687 593.163 40.466 609.177 40.466 C 613.466 40.466 617.469 40.896 621.187 41.753 L 621.187 48.187 C 617.469 47.329 613.323 46.9 608.748 46.9 C 598.31 46.9 593.092 51.976 593.092 62.127 C 593.092 73.423 598.31 79.07 608.748 79.07 C 613.323 79.07 617.469 78.641 621.187 77.783 Z"/>
    <path id="path25" d="M 116.49 0 L 9.48 0 C 4.266 0 0 4.266 0 9.48 L 0 116.49 C 0 121.704 4.266 125.97 9.48 125.97 L 116.49 125.97 C 121.704 125.97 125.97 121.704 125.97 116.49 L 125.97 9.48 C 125.97 4.266 121.704 0 116.49 0 Z M 107.79 88.24 L 107.79 88.24 C 107.79 89.058 106.904 89.569 106.196 89.16 L 62.988 64.214 L 19.784 89.157 C 19.074 89.568 18.186 89.055 18.186 88.235 L 18.186 37.736 C 18.186 36.915 19.074 36.403 19.784 36.813 L 62.988 61.757 L 106.196 36.811 C 106.904 36.402 107.79 36.913 107.79 37.731 Z"/>
  </g>
</svg>
